<?xml version="1.0" encoding="utf-8"?>
<!-- Generator: Adobe Illustrator 16.0.0, SVG Export Plug-In . SVG Version: 6.00 Build 0)  -->
<!DOCTYPE svg PUBLIC "-//W3C//DTD SVG 1.1//EN" "http://www.w3.org/Graphics/SVG/1.1/DTD/svg11.dtd">
<svg version="1.1" id="Capa_1" xmlns="http://www.w3.org/2000/svg" xmlns:xlink="http://www.w3.org/1999/xlink" x="0px" y="0px"
	 width="50px" height="45px" viewBox="0 0 50 45" enable-background="new 0 0 50 45" xml:space="preserve">
<path fill="#20408A" d="M48.721,44.938L1.32,45H1.319c-0.34,0-0.665-0.13-0.905-0.359c-0.24-0.231-0.375-0.546-0.376-0.873L0,17.027
	c0-0.007,0.002-0.014,0.002-0.021c0.006-0.385,0.197-0.762,0.551-0.997l7.192-4.789V6.142c0-0.681,0.574-1.233,1.281-1.233h8.198
	l7.051-4.695c0.439-0.293,1.021-0.291,1.459,0.002l7.006,4.693h8.234c0.707,0,1.279,0.552,1.279,1.233v5.138l7.157,4.794
	c0.256,0.171,0.427,0.416,0.504,0.685c0.028,0.063,0.046,0.172,0.046,0.244l0.038,26.699C50,44.383,49.427,44.936,48.721,44.938z
	 M44.9,42.475L25.019,27.618L5.066,42.527L44.9,42.475z M7.745,14.219l-4.213,2.805l4.213,2.806V14.219z M2.564,19.38l0.031,21.872
	l15.464-11.555L2.564,19.38z M25.001,2.73l-3.272,2.179h6.525L25.001,2.73z M39.693,7.376H10.306v14.159l9.876,6.574l4.052-3.027
	c0.467-0.348,1.102-0.336,1.552-0.012c0.006,0.005,0.011,0.008,0.019,0.012l4.021,3.007l9.867-6.609V7.376z M42.254,14.285v5.48
	l4.092-2.74L42.254,14.285z M47.402,19.321L31.947,29.673l15.488,11.574L47.402,19.321z M15.051,19.958
	c0-0.681,0.573-1.234,1.28-1.234h17.337c0.707,0,1.281,0.553,1.281,1.234s-0.574,1.234-1.281,1.234H16.331
	C15.624,21.192,15.051,20.639,15.051,19.958z M33.668,14.777H16.331c-0.707,0-1.28-0.552-1.28-1.233c0-0.682,0.573-1.234,1.28-1.234
	h17.337c0.707,0,1.281,0.552,1.281,1.234C34.949,14.225,34.375,14.777,33.668,14.777z"/>
</svg>
