<?xml version="1.0" encoding="utf-8"?>
<!-- Generator: Adobe Illustrator 16.0.0, SVG Export Plug-In . SVG Version: 6.00 Build 0)  -->
<!DOCTYPE svg PUBLIC "-//W3C//DTD SVG 1.1//EN" "http://www.w3.org/Graphics/SVG/1.1/DTD/svg11.dtd">
<svg version="1.1" id="Capa_1" xmlns="http://www.w3.org/2000/svg" xmlns:xlink="http://www.w3.org/1999/xlink" x="0px" y="0px"
	 width="50px" height="43px" viewBox="0 0 50 43" enable-background="new 0 0 50 43" xml:space="preserve">
<path fill="#20408A" d="M48.677,43.006c-0.17,0-0.336-0.033-0.497-0.097l-11.734-4.734l-10.984,4.749l-0.073,0.018
	c-0.117,0.041-0.258,0.064-0.388,0.064c-0.128,0-0.257-0.021-0.393-0.066l-0.085-0.019L24.481,42.9l-10.928-4.726L1.821,42.91
	c-0.161,0.063-0.328,0.096-0.494,0.096c-0.265,0-0.522-0.081-0.745-0.234C0.217,42.523,0,42.109,0,41.667V6.257
	c0-0.55,0.327-1.038,0.835-1.242l12.35-4.984l0.066-0.006c0.092-0.02,0.13-0.029,0.172-0.033l0.167-0.008
	c0.039,0,0.099,0.002,0.151,0.008l0.102,0.014l0.036,0.017l0.07,0.021h0.046l0.059,0.026l0.027,0.005L25,4.804l10.969-4.745
	l0.211-0.05l0.119-0.02c0.031-0.003,0.085-0.005,0.133-0.005c0.053,0,0.133,0,0.223,0.022l0.145,0.034l0.114,0.036l0.11,0.043
	l12.211,5.752C49.701,6.086,50,6.561,50,7.08v34.587c0,0.44-0.215,0.853-0.575,1.103C49.193,42.925,48.938,43.006,48.677,43.006z
	 M2.655,7.164v32.523l9.59-3.869V3.294L2.655,7.164z M37.755,35.818l9.591,3.869V7.931l-9.591-4.514V35.818z M14.9,35.844
	l8.773,3.792V7.143L14.9,3.346V35.844z M26.327,7.139v32.497l8.772-3.792V3.346L26.327,7.139z"/>
</svg>
