<?xml version="1.0" encoding="utf-8"?>
<!-- Generator: Adobe Illustrator 16.0.0, SVG Export Plug-In . SVG Version: 6.00 Build 0)  -->
<!DOCTYPE svg PUBLIC "-//W3C//DTD SVG 1.1//EN" "http://www.w3.org/Graphics/SVG/1.1/DTD/svg11.dtd">
<svg version="1.1" id="Capa_1" xmlns="http://www.w3.org/2000/svg" xmlns:xlink="http://www.w3.org/1999/xlink" x="0px" y="0px"
	 width="51px" height="51px" viewBox="0 0 51 51" enable-background="new 0 0 51 51" xml:space="preserve">
<path fill="#20408A" d="M48.854,24.661c-0.084,0.01-0.158,0.021-0.244,0.021c-0.687,0-1.289-0.486-1.405-1.183
	c-0.836-4.921-3.163-9.41-6.738-12.98c-3.575-3.559-8.069-5.893-12.998-6.727c-0.782-0.137-1.301-0.866-1.174-1.647
	c0.138-0.771,0.867-1.3,1.64-1.162c5.521,0.94,10.545,3.538,14.543,7.53c3.998,3.992,6.6,9.008,7.541,14.521
	C50.154,23.805,49.626,24.544,48.854,24.661z M27.542,10.055c3.353,0.57,6.409,2.154,8.831,4.573c2.422,2.418,4.009,5.47,4.58,8.818
	c0.127,0.782-0.391,1.521-1.174,1.648c-0.086,0.01-0.159,0.021-0.243,0.021c-0.688,0-1.291-0.486-1.407-1.183
	c-0.477-2.767-1.777-5.281-3.787-7.287c-2.009-2.007-4.525-3.316-7.297-3.781c-0.783-0.127-1.291-0.877-1.153-1.648
	C26.029,10.445,26.759,9.928,27.542,10.055z M18.065,19.465c-0.783,0.792-1.587,1.615-2.454,2.407
	c0.645,1.426,1.534,2.831,2.856,4.499c2.729,3.348,5.574,5.936,8.704,7.921c0.308,0.19,0.667,0.37,1.048,0.56
	c0.264,0.138,0.539,0.275,0.814,0.424l3.342-3.327c1.068-1.067,2.316-1.628,3.617-1.628c1.313,0,2.549,0.572,3.574,1.638
	l5.808,5.819c1.067,1.057,1.629,2.313,1.629,3.623c0,1.299-0.55,2.565-1.597,3.654c-0.455,0.475-0.922,0.928-1.375,1.361
	c-0.668,0.645-1.301,1.247-1.852,1.912c-0.011,0.021-0.031,0.031-0.043,0.053C40.529,50.123,38.479,51,36.035,51
	c-0.212,0-0.445-0.011-0.667-0.021c-3.627-0.232-6.875-1.595-9.308-2.746c-6.367-3.072-11.94-7.435-16.574-12.957
	c-3.818-4.584-6.377-8.861-8.091-13.477c-0.698-1.88-1.607-4.753-1.354-7.837c0.17-1.911,0.942-3.559,2.295-4.911l3.597-3.622
	c0.01-0.011,0.01-0.011,0.021-0.021C7.012,4.394,8.26,3.855,9.551,3.855c1.29,0,2.517,0.539,3.543,1.553
	c0.687,0.633,1.354,1.309,1.988,1.964c0.318,0.338,0.656,0.676,0.984,1.003l2.887,2.884c2.222,2.217,2.222,5.09,0,7.308
	C18.657,18.863,18.361,19.169,18.065,19.465z M16.944,13.276l-2.888-2.883c-0.338-0.349-0.676-0.687-1.004-1.025
	c-0.646-0.665-1.259-1.288-1.904-1.89c-0.011-0.011-0.021-0.021-0.032-0.032c-0.338-0.338-0.878-0.739-1.544-0.739
	c-0.54,0-1.09,0.264-1.608,0.75l-3.606,3.601c-0.878,0.877-1.354,1.901-1.46,3.137c-0.159,1.932,0.201,3.981,1.185,6.611
	c1.597,4.309,4.008,8.322,7.615,12.663c4.368,5.206,9.625,9.314,15.61,12.208c2.189,1.046,5.108,2.271,8.25,2.472
	c0.158,0.011,0.328,0.011,0.486,0.011c1.65,0,2.909-0.539,3.977-1.679c0.656-0.771,1.354-1.459,2.041-2.113
	c0.455-0.443,0.879-0.844,1.291-1.288c1.08-1.119,1.08-2.228-0.011-3.306l-5.827-5.819c-0.011-0.011-0.011-0.011-0.021-0.021
	c-0.328-0.359-0.867-0.771-1.523-0.771c-0.666,0-1.236,0.433-1.597,0.792l-3.617,3.612c-0.18,0.18-0.729,0.729-1.608,0.729
	c-0.349,0-0.687-0.085-1.047-0.264c-0.041-0.021-0.084-0.053-0.127-0.074c-0.306-0.189-0.666-0.37-1.047-0.561
	c-0.423-0.211-0.867-0.433-1.301-0.707c-3.395-2.144-6.473-4.942-9.392-8.533l-0.01-0.01c-1.608-2.039-2.666-3.75-3.417-5.566
	c-0.01-0.032-0.021-0.063-0.031-0.095c-0.191-0.602-0.36-1.489,0.55-2.397c0.01-0.021,0.031-0.032,0.053-0.053
	c0.92-0.824,1.766-1.669,2.654-2.577c0.307-0.296,0.603-0.602,0.91-0.908C18.065,15.43,18.065,14.395,16.944,13.276z"/>
</svg>
